<svg width="78" height="71" viewBox="0 0 78 71" fill="none" xmlns="http://www.w3.org/2000/svg">
  <style>
    path { fill: #071D32; }
    @media (prefers-color-scheme: dark) {
      path { fill: #F0FE80; }
    }
  </style>
  <path d="M48.756 40.5105L46.3981 69.9167C46.3854 70.082 46.3106 70.2363 46.1888 70.3487C46.0669 70.4612 45.9071 70.5234 45.7413 70.5229L33.4297 70.4555C33.3405 70.4546 33.2524 70.4355 33.1709 70.3993C33.0893 70.3632 33.0159 70.3109 32.9553 70.2455C32.8946 70.1801 32.8479 70.1031 32.818 70.019C32.788 69.935 32.7756 69.8458 32.7813 69.7568L34.6676 40.4094C34.6734 40.3197 34.6607 40.2298 34.6302 40.1452C34.5998 40.0606 34.5524 39.9832 34.4908 39.9177C34.4292 39.8521 34.3548 39.8 34.2723 39.7644C34.1897 39.7288 34.1007 39.7105 34.0108 39.7107H17.0424C16.8796 39.708 16.7219 39.7675 16.6014 39.877C16.481 39.9865 16.4068 40.1377 16.3939 40.3L13.6403 69.8746C13.6274 70.0369 13.5532 70.1882 13.4328 70.2976C13.3123 70.4071 13.1546 70.4666 12.9918 70.4639H0.663411C0.568774 70.4649 0.475051 70.4454 0.388657 70.4068C0.302263 70.3681 0.225241 70.3113 0.162862 70.2401C0.100484 70.169 0.0542227 70.0852 0.0272469 69.9945C0.00027116 69.9038 -0.00678238 69.8084 0.00656924 69.7147L6.44867 0.58931C6.46342 0.427797 6.53819 0.277677 6.65823 0.16858C6.77828 0.0594826 6.93486 -0.000665886 7.09709 5.56155e-06H19.4255C19.517 -0.000363413 19.6075 0.0183626 19.6913 0.0549847C19.7751 0.0916068 19.8503 0.145318 19.9121 0.212679C19.974 0.28004 20.021 0.359567 20.0503 0.446167C20.0797 0.532768 20.0906 0.624534 20.0824 0.715589L17.7666 25.5085C17.7584 25.5995 17.7693 25.6913 17.7986 25.7779C17.8279 25.8645 17.875 25.944 17.9368 26.0114C17.9986 26.0787 18.0739 26.1324 18.1576 26.1691C18.2414 26.2057 18.332 26.2244 18.4234 26.224H36.5792C36.6731 26.2243 36.7659 26.2447 36.8513 26.2839C36.9366 26.323 37.0126 26.38 37.0741 26.4511C37.1355 26.5221 37.181 26.6054 37.2075 26.6955C37.234 26.7856 37.2409 26.8803 37.2276 26.9733L35.5434 38.7594C35.5289 38.8512 35.5343 38.945 35.5593 39.0345C35.5842 39.124 35.6282 39.2071 35.6881 39.2782C35.7479 39.3492 35.8224 39.4066 35.9064 39.4464C35.9905 39.4861 36.082 39.5074 36.175 39.5086L48.1413 39.8454C48.3096 39.8562 48.4672 39.9312 48.5817 40.055C48.6961 40.1788 48.7585 40.3419 48.756 40.5105Z"/>
  <path d="M77.5564 21.3328L73.2701 69.7989C73.2534 69.982 73.1691 70.1524 73.0337 70.2769C72.8983 70.4014 72.7214 70.471 72.5375 70.4724H59.9059C59.8002 70.4722 59.6957 70.4493 59.5996 70.4054C59.5034 70.3615 59.4177 70.2975 59.3483 70.2178C59.2789 70.138 59.2274 70.0444 59.1972 69.9431C59.167 69.8418 59.1589 69.7352 59.1733 69.6305L63.5017 21.8885C63.5098 21.7877 63.4971 21.6864 63.4646 21.5908C63.432 21.4951 63.3802 21.4071 63.3124 21.3322C63.2446 21.2573 63.1621 21.197 63.0701 21.1552C62.9781 21.1133 62.8785 21.0907 62.7775 21.0887L38.3564 20.8277C38.2558 20.828 38.1562 20.8075 38.0639 20.7675C37.9716 20.7276 37.8884 20.6691 37.8197 20.5957C37.7509 20.5222 37.6981 20.4354 37.6644 20.3406C37.6307 20.2458 37.6169 20.1451 37.6238 20.0448L38.5249 7.57679C38.5377 7.39142 38.6205 7.21786 38.7565 7.09125C38.8926 6.96463 39.0716 6.89444 39.2575 6.89488L64.3017 6.73493C64.4023 6.73469 64.5019 6.75517 64.5943 6.79509C64.6866 6.83502 64.7697 6.89353 64.8385 6.96699C64.9072 7.04044 64.9601 7.12726 64.9938 7.22204C65.0275 7.31681 65.0413 7.41751 65.0343 7.51786L64.1922 19.7585C64.1865 19.8593 64.2014 19.9602 64.2361 20.055C64.2707 20.1498 64.3244 20.2365 64.3938 20.3098C64.4632 20.3831 64.5468 20.4415 64.6396 20.4813C64.7324 20.5212 64.8323 20.5416 64.9333 20.5415H76.8238C76.9248 20.5424 77.0246 20.5639 77.1169 20.6048C77.2093 20.6457 77.2924 20.705 77.361 20.7791C77.4296 20.8532 77.4823 20.9405 77.5159 21.0358C77.5495 21.131 77.5633 21.2321 77.5564 21.3328Z"/>
</svg>
